<svg width="36" height="41" viewBox="0 0 36 41" fill="none" xmlns="http://www.w3.org/2000/svg">
<path fill-rule="evenodd" clip-rule="evenodd" d="M5.88822 2.95639V0.521606H0.322998V2.95639V8.17378V17.2173V22.7825V22.9564C0.322998 32.6574 8.18721 40.5216 17.8882 40.5216C27.5892 40.5216 35.4534 32.6574 35.4534 22.9564V22.7825V17.2173V8.17378V2.95639V0.521606H29.8882V2.95639H20.4969V2.60856V0.521606H14.9317V2.60856V2.95639H5.88822ZM14.9317 34.5894C9.78296 33.2849 5.96086 28.652 5.88924 23.1147C6.48236 23.2584 7.06484 23.4481 7.63125 23.6827C9.06606 24.277 10.3698 25.1481 11.4679 26.2463C12.5661 27.3444 13.4372 28.6481 14.0315 30.0829C14.6234 31.5118 14.9292 33.0429 14.9317 34.5894ZM15.4031 22.3111C16.2746 23.1825 17.0488 24.142 17.7143 25.1723C18.3798 24.142 19.154 23.1825 20.0255 22.3111C20.8969 21.4396 21.8564 20.6654 22.8867 19.9999C21.8564 19.3344 20.8969 18.5601 20.0255 17.6887C19.154 16.8172 18.3798 15.8578 17.7143 14.8275C17.0488 15.8578 16.2746 16.8172 15.4031 17.6887C14.5317 18.5601 13.5722 19.3344 12.5419 19.9999C13.5722 20.6654 14.5317 21.4396 15.4031 22.3111ZM29.888 23.0359C29.851 28.7322 25.8451 33.4865 20.4969 34.672V34.6086C20.4969 33.0555 20.8028 31.5177 21.3971 30.0829C21.9914 28.6481 22.8625 27.3444 23.9607 26.2463C25.0588 25.1481 26.3625 24.277 27.7974 23.6827C28.4744 23.4023 29.1743 23.186 29.888 23.0359ZM14.5098 8.52161C14.3799 8.99519 14.2202 9.4612 14.0315 9.91682C13.4372 11.3516 12.5661 12.6553 11.4679 13.7535C10.3698 14.8516 9.06606 15.7227 7.63125 16.3171C7.06451 16.5518 6.48169 16.7416 5.88822 16.8852V8.52161H14.5098ZM29.8882 16.9639V8.52161H20.9188C21.0488 8.99519 21.2084 9.4612 21.3971 9.91682C21.9914 11.3516 22.8625 12.6553 23.9607 13.7535C25.0588 14.8516 26.3625 15.7227 27.7974 16.3171C28.4744 16.5975 29.1745 16.8137 29.8882 16.9639Z" fill="#09C382"></path>
</svg>